<?xml version="1.0" encoding="utf-8"?>
<!-- Generator: Adobe Illustrator 25.2.3, SVG Export Plug-In . SVG Version: 6.00 Build 0)  -->
<svg version="1.1" id="Artboard_1" xmlns="http://www.w3.org/2000/svg" xmlns:xlink="http://www.w3.org/1999/xlink" x="0px" y="0px"
	 viewBox="0 28.7 28.6 41" style="enable-background:new 0 28.7 28.6 41;" xml:space="preserve">
<style type="text/css">
	.st0{fill:#003A96;}
	.st1{fill:#2fa7b0;}
</style>
<g>

	<g>
		<polygon class="st1" points="3.8,44.1 0,44.1 0,50.6 0,56.5 3.8,56.5 		"/>
		<polygon class="st1" points="8.2,44.1 8.2,50.6 8.2,56.5 12.1,56.5 12.1,44.1 		"/>
		<polygon class="st1" points="16.5,44.1 16.5,50.6 16.5,56.5 20.3,56.5 20.3,44.1 		"/>
		<polygon class="st1" points="0,41.7 14.3,41.7 28.6,41.7 28.6,38.2 0,38.2 		"/>
		<polygon class="st1" points="14.3,28.7 0,33.4 0,37.1 14.3,32.3 28.6,37.1 28.6,33.4 		"/>
		<path class="st1" d="M28.6,56.2c-0.1,0.2-1.5,2.6-10.6,2.6l-7.4,0C1.2,58.9,0.2,60.1,0,60.2v3.6c0.2-0.1,1.2-1.3,10.6-1.4l7.4,0
			c9.1,0,10.5-2.4,10.6-2.6V56.2z"/>
		<path class="st1" d="M28.6,62.1c-0.1,0.2-1.5,2.6-10.6,2.6l-7.4,0C1.2,64.8,0.2,66,0,66.1v3.6c0.2-0.1,1.2-1.3,10.6-1.4l7.4,0
			c9.1,0,10.5-2.4,10.6-2.6V62.1z"/>
		<path class="st1" d="M24.7,44.1v11.8c3.1-0.7,3.8-1.8,3.8-2v-9.8H24.7z"/>
	</g>
</g>
</svg>
